<svg width="18" height="20" viewBox="0 0 18 20" fill="none" xmlns="http://www.w3.org/2000/svg">
<path fill-rule="evenodd" clip-rule="evenodd" d="M9 1.5625C8.03859 1.5625 7.11656 1.94442 6.43674 2.62424C5.75692 3.30406 5.375 4.22609 5.375 5.1875V6.0625H12.625V5.1875C12.625 4.22609 12.2431 3.30406 11.5633 2.62424C10.8834 1.94442 9.96141 1.5625 9 1.5625ZM13.625 6.0625V5.1875C13.625 3.96087 13.1377 2.78449 12.2704 1.91713C11.403 1.04978 10.2266 0.5625 9 0.5625C7.77337 0.5625 6.59699 1.04978 5.72963 1.91713C4.86228 2.78449 4.375 3.96087 4.375 5.1875V6.0625H1.4375C1.12256 6.0625 0.82051 6.18761 0.597811 6.41031C0.375112 6.63301 0.25 6.93506 0.25 7.25V16.5312C0.25 18.1068 1.58073 19.4375 3.15625 19.4375H14.8438C16.4045 19.4375 17.75 18.175 17.75 16.585V7.25C17.75 6.93506 17.6249 6.63301 17.4022 6.41031C17.1795 6.18761 16.8774 6.0625 16.5625 6.0625H13.625ZM1.4375 7.0625C1.38777 7.0625 1.34008 7.08225 1.30492 7.11742C1.26975 7.15258 1.25 7.20027 1.25 7.25V16.5312C1.25 17.5545 2.13302 18.4375 3.15625 18.4375H14.8438C15.8817 18.4375 16.75 17.5937 16.75 16.585V7.25C16.75 7.20027 16.7302 7.15258 16.6951 7.11742C16.6599 7.08225 16.6122 7.0625 16.5625 7.0625H1.4375Z" fill="#3A3A3A"/>
</svg>
