<svg width="22" height="22" viewBox="0 0 22 22" fill="none" xmlns="http://www.w3.org/2000/svg">
<path fill-rule="evenodd" clip-rule="evenodd" d="M2.24998 7.59218C2.2758 5.07369 4.27582 2.9375 6.83542 2.9375C8.4074 2.9375 9.56786 3.71483 10.316 4.45768C10.5975 4.7371 10.8251 5.0158 11 5.25514C11.1748 5.0158 11.4024 4.7371 11.6839 4.45768C12.4321 3.71483 13.5925 2.9375 15.1645 2.9375C17.7241 2.9375 19.7241 5.07369 19.7499 7.59218L19.7499 7.59232C19.7997 12.5819 15.7906 16.0585 11.6675 18.8572L11.3869 18.4438L11.6679 18.8569C11.6678 18.857 11.6676 18.8571 11.6675 18.8572C11.4706 18.991 11.238 19.0626 11 19.0626C10.7619 19.0626 10.5293 18.991 10.3324 18.8572L10.6131 18.4436L10.332 18.8569C10.3321 18.857 10.3323 18.8571 10.3324 18.8572C6.20892 16.0585 2.19978 12.5819 2.24998 7.59228L2.24998 7.59218ZM15.1645 3.9375C13.9469 3.9375 13.0251 4.53517 12.3884 5.16732C12.0711 5.48234 11.8327 5.79862 11.6739 6.03585C11.5949 6.15406 11.5363 6.25149 11.4984 6.31774C11.4795 6.35084 11.4657 6.37605 11.4572 6.39208L11.4483 6.40901L11.4472 6.41111C11.4471 6.41122 11.4471 6.41132 11.447 6.41143C11.4471 6.41127 11.4472 6.41111 11 6.1875C10.5527 6.41111 10.5528 6.41127 10.5529 6.41143L10.5517 6.40901L10.5427 6.39208C10.5342 6.37605 10.5204 6.35084 10.5015 6.31774C10.4636 6.25149 10.405 6.15406 10.326 6.03585C10.1672 5.79862 9.92876 5.48234 9.61148 5.16732C8.97479 4.53517 8.05297 3.9375 6.83542 3.9375C4.86096 3.9375 3.27051 5.59459 3.24993 7.60243C3.2056 12.0083 6.74435 15.2133 10.894 18.0298L10.8945 18.0301C10.9256 18.0512 10.9623 18.0626 11 18.0626C11.0376 18.0626 11.0743 18.0512 11.1054 18.0301L11.1059 18.0298C15.2551 15.2133 18.7939 12.0083 18.75 7.60229C18.75 7.60234 18.75 7.60238 18.75 7.60243L19.25 7.59731L18.75 7.60229C18.7293 5.59452 17.1389 3.9375 15.1645 3.9375ZM11 6.1875L10.5527 6.41111C10.5529 6.41139 10.553 6.41168 10.5532 6.41197C10.638 6.58086 10.8109 6.6875 11 6.6875C11.1892 6.6875 11.3623 6.58064 11.447 6.41143" fill="#3A3A3A"/>
</svg>
