<svg width="22" height="22" viewBox="0 0 22 22" fill="none" xmlns="http://www.w3.org/2000/svg">
<path fill-rule="evenodd" clip-rule="evenodd" d="M10.9999 2.5625C9.01453 2.5625 7.56644 4.07609 7.71735 6.15123L7.21867 6.1875L7.71735 6.15123C7.86908 8.23514 9.43878 9.8125 10.9999 9.8125C12.5606 9.8125 14.128 8.2352 14.2825 6.15053C14.4332 4.11571 12.9821 2.5625 10.9999 2.5625ZM6.71999 6.22377C6.52716 3.57235 8.43062 1.5625 10.9999 1.5625C13.5724 1.5625 15.4728 3.61865 15.2798 6.22444L15.2798 6.22447C15.0975 8.68332 13.2205 10.8125 10.9999 10.8125C8.77981 10.8125 6.89913 8.68427 6.71999 6.22381L6.71999 6.22377Z" fill="#3A3A3A"/>
<path fill-rule="evenodd" clip-rule="evenodd" d="M3.125 19.7914C3.125 15.4462 7.05984 12.5625 11.0002 12.5625C14.9427 12.5625 18.8757 15.4911 18.8757 19.7914H17.8757C17.8757 16.1769 14.5342 13.5625 11.0002 13.5625C7.46391 13.5625 4.125 16.1358 4.125 19.7914H3.125Z" fill="#3A3A3A"/>
</svg>
