<svg width="9" height="12" viewBox="0 0 9 12" fill="none" xmlns="http://www.w3.org/2000/svg">
<path d="M0 4.66667H0.666667V0H5.66667C7.33333 0 8.66667 1.33333 8.66667 3C8.66667 4.66667 7.33333 6 5.66667 6H2V7.33333H6V8.66667H2V12H0.666667V8.66667H0V7.33333H0.666667V6H0V4.66667ZM5.66667 1.33333H2V4.66667H5.66667C6.1087 4.66667 6.53262 4.49107 6.84518 4.17851C7.15774 3.86595 7.33333 3.44203 7.33333 3C7.33333 2.55797 7.15774 2.13405 6.84518 1.82149C6.53262 1.50893 6.1087 1.33333 5.66667 1.33333Z" fill="#3A3A3A"/>
</svg>
