<svg width="22" height="22" viewBox="0 0 22 22" fill="none" xmlns="http://www.w3.org/2000/svg">
<path fill-rule="evenodd" clip-rule="evenodd" d="M5.4721 3.47184C6.66435 2.6752 8.06605 2.25 9.49996 2.25V2.75L9.49999 2.25C11.4228 2.25012 13.2667 3.01399 14.6263 4.37359C15.9859 5.73319 16.7498 7.57717 16.7499 9.49993V9.49996C16.7499 10.9339 16.3247 12.3356 15.5281 13.5278C14.7314 14.7201 13.5992 15.6493 12.2744 16.1981C10.9496 16.7468 9.49192 16.8904 8.08556 16.6106C6.67921 16.3309 5.38739 15.6404 4.37347 14.6265C3.35954 13.6125 2.66905 12.3207 2.38931 10.9144C2.10957 9.508 2.25314 8.05028 2.80187 6.72552C3.3506 5.40076 4.27985 4.26847 5.4721 3.47184ZM9.49996 3.25C11.1575 3.25011 12.7471 3.90863 13.9192 5.0807C15.0913 6.25277 15.7498 7.8424 15.7499 9.49996M9.49993 3.25C8.26381 3.25001 7.05546 3.61656 6.02767 4.30331C4.99987 4.99006 4.1988 5.96617 3.72575 7.1082C3.25271 8.25024 3.12894 9.50689 3.37009 10.7193C3.61125 11.9316 4.2065 13.0453 5.08057 13.9194C5.95464 14.7934 7.06828 15.3887 8.28065 15.6298C9.49302 15.871 10.7497 15.7472 11.8917 15.2742C13.0337 14.8011 14.0099 14.0001 14.6966 12.9723C15.3834 11.9445 15.7499 10.7361 15.7499 9.49999" fill="#3A3A3A"/>
<path fill-rule="evenodd" clip-rule="evenodd" d="M14.1826 14.1823C14.3778 13.9871 14.6944 13.9871 14.8897 14.1823L19.6038 18.8964C19.799 19.0917 19.799 19.4083 19.6038 19.6035C19.4085 19.7988 19.0919 19.7988 18.8967 19.6035L14.1826 14.8894C13.9873 14.6942 13.9873 14.3776 14.1826 14.1823Z" fill="#3A3A3A"/>
</svg>
